<?xml version="1.0" encoding="utf-8"?>
<!-- Generator: Adobe Illustrator 26.1.0, SVG Export Plug-In . SVG Version: 6.00 Build 0)  -->
<svg version="1.1" id="Layer_1" xmlns="http://www.w3.org/2000/svg" xmlns:xlink="http://www.w3.org/1999/xlink" x="0px" y="0px"
	 viewBox="0 0 10 10" style="enable-background:new 0 0 10 10;" xml:space="preserve">
<style type="text/css">
	.st0{fill:#FFFFFF;}
</style>
<g>
	<path class="st0" d="M6.2,3.8C6.3,4,6.4,4.2,6.5,4.4C6.6,4.6,6.6,4.8,6.6,5c0,0.2,0,0.4-0.1,0.6C6.4,5.8,6.3,6,6.2,6.2
		C6,6.3,5.8,6.4,5.6,6.5C5.4,6.6,5.2,6.6,5,6.6c-0.2,0-0.4,0-0.6-0.1C4.2,6.4,4,6.3,3.8,6.2C3.7,6,3.6,5.8,3.5,5.6
		C3.4,5.4,3.4,5.2,3.4,5s0-0.4,0.1-0.6C3.6,4.2,3.7,4,3.8,3.8C4,3.7,4.2,3.6,4.4,3.5C4.6,3.4,4.8,3.4,5,3.4c0.2,0,0.4,0,0.6,0.1
		C5.8,3.6,6,3.7,6.2,3.8"/>
	<path class="st0" d="M5,8.6c-1.9,0-3.7-1.2-4.9-3.4L0,5l0.1-0.3C1.3,2.6,3.1,1.4,5,1.4c1.9,0,3.7,1.2,4.9,3.4L10,5L9.9,5.3
		C8.7,7.4,6.9,8.6,5,8.6z M1.2,5C2.2,6.6,3.5,7.5,5,7.5c1.5,0,2.8-0.9,3.8-2.5C7.8,3.4,6.5,2.5,5,2.5C3.5,2.5,2.2,3.4,1.2,5z"/>
</g>
<rect x="-0.5" y="4.5" transform="matrix(0.7071 -0.7071 0.7071 0.7071 -2.0711 5)" class="st0" width="11" height="1"/>
</svg>
