<?xml version="1.0" encoding="utf-8"?>
<!-- Generator: Adobe Illustrator 26.1.0, SVG Export Plug-In . SVG Version: 6.00 Build 0)  -->
<svg version="1.1" id="Layer_1" xmlns="http://www.w3.org/2000/svg" xmlns:xlink="http://www.w3.org/1999/xlink" x="0px" y="0px"
	 viewBox="0 0 10 10" style="enable-background:new 0 0 10 10;" xml:space="preserve">
<style type="text/css">
	.st0{fill:#F4EEDB;}
	.st1{fill:#99925D;}
</style>
<rect class="st0" width="10" height="10"/>
<path class="st1" d="M8.6,10H1.4C0.6,10,0,9.4,0,8.6V1.4C0,0.6,0.6,0,1.4,0h7.3C9.4,0,10,0.6,10,1.4v7.3C10,9.4,9.4,10,8.6,10z"/>
<path class="st0" d="M2.6,5.8c0.1,0.3,0.3,0.7,0.5,0.9l-0.5,1l1.3,0.8l0.5-0.9c0.2,0,0.4,0.1,0.5,0.1c0.2,0,0.4,0,0.5-0.1l0.5,0.9
	l1.3-0.8l-0.5-1c0.2-0.3,0.4-0.6,0.5-0.9h1.1V4.2H7.4C7.3,3.9,7.1,3.6,6.9,3.3l0.5-1L6.1,1.6L5.5,2.5C5.4,2.5,5.2,2.5,5,2.5
	c-0.2,0-0.4,0-0.5,0.1L3.9,1.6L2.6,2.4l0.5,1C2.9,3.6,2.7,3.9,2.6,4.2H1.5v1.5H2.6z M3.9,5c0-0.6,0.5-1.1,1.1-1.1S6.1,4.4,6.1,5
	c0,0.6-0.5,1.1-1.1,1.1S3.9,5.6,3.9,5z"/>
</svg>
