<?xml version="1.0" encoding="utf-8"?>
<!-- Generator: Adobe Illustrator 26.1.0, SVG Export Plug-In . SVG Version: 6.00 Build 0)  -->
<svg version="1.1" id="Layer_1" xmlns="http://www.w3.org/2000/svg" xmlns:xlink="http://www.w3.org/1999/xlink" x="0px" y="0px"
	 viewBox="0 0 10 10" style="enable-background:new 0 0 10 10;" xml:space="preserve">
<style type="text/css">
	.st0{fill:#99925D;}
</style>
<path class="st0" d="M5,5.77c-0.2,0-0.39,0.07-0.55,0.19c-0.1,0.07-0.17,0.16-0.23,0.26c-0.09,0.14-0.14,0.3-0.14,0.47
	c0,0.17,0.04,0.32,0.13,0.46c0.09,0.14,0.2,0.25,0.35,0.32c0,0.05-0.01,0.11-0.02,0.17L4.32,8.7h1.31L5.4,7.59
	C5.39,7.56,5.39,7.53,5.39,7.5c0.15-0.07,0.28-0.18,0.37-0.32c0.1-0.15,0.15-0.31,0.15-0.48c0-0.26-0.1-0.47-0.3-0.65
	C5.47,5.86,5.28,5.77,5.06,5.77H5z M4.91,1.1C4.51,1.09,4.14,1.19,3.79,1.4s-0.62,0.49-0.8,0.83C2.91,2.39,2.84,2.56,2.8,2.75
	C2.75,2.94,2.73,3.1,2.72,3.24c0,0.14,0,0.32,0,0.56c0,0.24,0.01,0.41,0.01,0.52h4.59C7.31,4.2,7.31,4.03,7.31,3.81
	c0-0.22,0-0.4,0-0.54c0-0.14-0.02-0.3-0.06-0.48C7.21,2.6,7.15,2.43,7.08,2.28C6.9,1.91,6.62,1.62,6.25,1.41
	C5.89,1.2,5.5,1.09,5.08,1.09C5.02,1.09,4.96,1.09,4.91,1.1 M6.86,0.51C7.41,0.85,7.81,1.3,8.08,1.86c0.07,0.12,0.12,0.25,0.17,0.4
	c0.04,0.14,0.07,0.27,0.1,0.39C8.36,2.77,8.38,2.92,8.39,3.1S8.41,3.41,8.41,3.5v0.44v0.4h0.33h0.3H9.1c0.09,0,0.15,0.01,0.18,0.03
	c0.03,0.02,0.04,0.09,0.03,0.19v2.45v2.45c-0.01,0.04-0.01,0.1,0,0.18c0.01,0.08,0.01,0.15-0.01,0.21S9.26,9.97,9.2,10H1.19
	c-0.04-0.01-0.1-0.01-0.19,0C0.92,10,0.85,10,0.79,9.99C0.73,9.98,0.7,9.94,0.68,9.88V4.85V4.52c-0.01-0.06,0-0.1,0.01-0.13
	c0.02-0.03,0.05-0.04,0.1-0.04h0.26h0.31h0.28c0-0.11,0-0.28-0.01-0.51c0-0.23,0-0.43,0-0.62c0-0.18,0.02-0.36,0.04-0.52
	c0.12-0.76,0.5-1.4,1.12-1.93C3.44,0.25,4.14,0,4.91,0.01C4.97,0,5.03,0,5.09,0C5.72,0,6.31,0.17,6.86,0.51"/>
</svg>
