<?xml version="1.0" encoding="utf-8"?>
<!-- Generator: Adobe Illustrator 26.1.0, SVG Export Plug-In . SVG Version: 6.00 Build 0)  -->
<svg version="1.1" id="Layer_1" xmlns="http://www.w3.org/2000/svg" xmlns:xlink="http://www.w3.org/1999/xlink" x="0px" y="0px"
	 viewBox="0 0 10 10" style="enable-background:new 0 0 10 10;" xml:space="preserve">
<style type="text/css">
	.st0{fill:#99925D;}
</style>
<path class="st0" d="M4.24,4.24H2.35v1.51h1.89v1.9h1.52v-1.9h1.89V4.24H5.76v-1.9H4.24V4.24z M8.53,1.45
	c0.45,0.45,0.8,0.98,1.07,1.6C9.87,3.67,10,4.32,10,4.99c0,0.68-0.13,1.33-0.4,1.94c-0.27,0.62-0.62,1.15-1.07,1.6
	C8.09,8.98,7.56,9.34,6.94,9.6S5.68,10,5,10c-0.68,0-1.33-0.13-1.94-0.4C2.44,9.34,1.91,8.98,1.47,8.53
	c-0.45-0.45-0.8-0.98-1.07-1.6C0.13,6.32,0,5.67,0,4.99c0-0.68,0.13-1.33,0.4-1.94c0.27-0.62,0.62-1.15,1.07-1.6
	c0.45-0.45,0.98-0.8,1.59-1.06C3.67,0.13,4.32,0,5,0c0.68,0,1.33,0.13,1.94,0.39C7.56,0.65,8.09,1.01,8.53,1.45"/>
</svg>
